<?xml version="1.0" encoding="UTF-8"?><svg xmlns="http://www.w3.org/2000/svg" xmlns:xlink="http://www.w3.org/1999/xlink" contentScriptType="text/ecmascript" width="375pt" zoomAndPan="magnify" contentStyleType="text/css" viewBox="0 0 375 374.999991" height="374.999991pt" preserveAspectRatio="xMidYMid meet" version="1.2"><defs><g/><clipPath xml:id="clip1" id="clip1"><path d="M 72.773438 86.695312 L 266 86.695312 L 266 224.648438 L 72.773438 224.648438 Z M 72.773438 86.695312 "/></clipPath></defs><g xml:id="surface1" id="surface1"><rect x="0" width="375" y="0" height="374.999991" style="fill:rgb(100%,100%,100%);fill-opacity:1;stroke:none;"/><rect x="0" width="375" y="0" height="374.999991" style="fill:rgb(100%,100%,100%);fill-opacity:1;stroke:none;"/><rect x="0" width="375" y="0" height="374.999991" style="fill:rgb(100%,26.269531%,0%);fill-opacity:1;stroke:none;"/><path style=" stroke:none;fill-rule:nonzero;fill:rgb(97.24884%,79.60968%,18.03894%);fill-opacity:1;" d="M 126.714844 215.214844 C 101.835938 215.214844 81.597656 195.09375 81.597656 170.292969 C 81.597656 161.570312 84.082031 153.144531 88.789062 145.855469 C 93.449219 138.640625 100.132812 132.933594 108.113281 129.324219 C 108.714844 129.054688 109.167969 128.613281 109.421875 128.039062 C 113.710938 118.300781 120.640625 110.109375 129.464844 104.347656 C 138.292969 98.582031 148.613281 95.53125 159.300781 95.53125 C 175.054688 95.53125 190.027344 102.347656 200.375 114.238281 C 200.867188 114.804688 201.582031 115.132812 202.332031 115.132812 C 202.351562 115.132812 202.441406 115.132812 202.46875 115.128906 C 203.285156 115.09375 204.121094 115.074219 204.953125 115.074219 C 233.570312 115.074219 256.851562 137.652344 256.851562 165.40625 C 256.851562 166.996094 255.5625 168.292969 253.96875 168.292969 C 252.382812 168.292969 251.09375 167 251.09375 165.40625 C 251.09375 140.832031 230.394531 120.839844 204.957031 120.839844 C 203.371094 120.839844 201.769531 120.917969 200.203125 121.074219 L 198.632812 121.230469 L 197.65625 119.988281 C 188.328125 108.117188 174.351562 101.308594 159.308594 101.308594 C 139.136719 101.308594 121.324219 113.453125 113.921875 132.257812 L 113.460938 133.421875 L 112.300781 133.882812 C 97.15625 139.863281 87.367188 154.289062 87.367188 170.695312 C 87.367188 192.527344 105.023438 210.246094 126.722656 210.246094 L 233.242188 210.246094 C 234.625 210.246094 236.121094 211.015625 236.121094 212.730469 C 236.121094 214.449219 234.632812 215.214844 233.242188 215.214844 Z M 126.714844 215.214844 "/><g clip-rule="nonzero" clip-path="url(#clip1)"><path style=" stroke:none;fill-rule:nonzero;fill:rgb(97.24884%,79.60968%,18.03894%);fill-opacity:1;" d="M 205.019531 106.234375 C 193.113281 93.796875 176.5625 86.699219 159.300781 86.699219 C 135.082031 86.699219 112.890625 100.644531 102.34375 122.355469 C 84.0625 131.566406 72.773438 149.910156 72.773438 170.566406 C 72.773438 200.355469 96.972656 224.605469 126.714844 224.605469 L 233.230469 224.605469 C 239.6875 224.605469 244.933594 219.199219 244.933594 212.730469 C 244.933594 206.265625 239.683594 200.863281 233.230469 200.863281 L 126.714844 200.863281 C 109.882812 200.863281 96.1875 187.285156 96.1875 170.421875 C 96.1875 157.777344 103.78125 146.675781 115.53125 142.039062 L 120.265625 140.203125 L 122.128906 135.480469 C 128.191406 120.078125 142.785156 110.136719 159.308594 110.136719 C 171.625 110.136719 183.078125 115.722656 190.71875 125.449219 L 194.683594 130.5 L 201.0625 129.867188 C 202.347656 129.742188 203.65625 129.679688 204.953125 129.679688 C 225.527344 129.679688 242.261719 145.707031 242.261719 165.40625 C 242.261719 171.875 247.515625 177.132812 253.96875 177.132812 C 260.425781 177.132812 265.671875 171.875 265.671875 165.40625 C 265.671875 132.800781 238.46875 106.269531 205.019531 106.234375 Z M 253.96875 172.96875 C 249.808594 172.96875 246.421875 169.578125 246.421875 165.40625 C 246.421875 143.410156 227.820312 125.523438 204.953125 125.523438 C 203.519531 125.523438 202.074219 125.59375 200.65625 125.730469 L 196.539062 126.136719 L 193.984375 122.882812 C 185.542969 112.148438 172.90625 105.988281 159.300781 105.988281 C 141.066406 105.988281 124.957031 116.972656 118.261719 133.972656 L 117.058594 137.027344 L 114.003906 138.234375 C 100.65625 143.503906 92.03125 156.183594 92.03125 170.550781 C 92.03125 189.703125 107.589844 205.28125 126.714844 205.28125 L 233.230469 205.28125 C 237.394531 205.28125 240.78125 208.5625 240.78125 212.730469 C 240.78125 216.902344 237.394531 220.1875 233.230469 220.1875 L 126.714844 220.1875 C 99.261719 220.1875 76.929688 197.9375 76.929688 170.445312 C 76.929688 150.839844 87.84375 133.695312 105.472656 125.402344 C 115.082031 104.351562 136.125 90.832031 159.300781 90.832031 C 176.070312 90.832031 192.023438 97.960938 203.234375 110.40625 C 203.808594 110.390625 204.378906 110.390625 204.953125 110.390625 C 236.144531 110.390625 261.519531 135.070312 261.519531 165.40625 C 261.519531 169.578125 258.132812 172.96875 253.96875 172.96875 Z M 253.96875 172.96875 "/></g><path style=" stroke:none;fill-rule:nonzero;fill:rgb(97.24884%,79.60968%,18.03894%);fill-opacity:1;" d="M 291.265625 152.398438 C 291.265625 152.960938 291.210938 153.519531 291.101562 154.070312 C 290.992188 154.625 290.832031 155.160156 290.617188 155.683594 C 290.398438 156.203125 290.136719 156.695312 289.824219 157.164062 C 289.511719 157.632812 289.15625 158.066406 288.757812 158.464844 C 288.359375 158.863281 287.929688 159.21875 287.460938 159.53125 C 286.992188 159.84375 286.5 160.109375 285.980469 160.324219 C 285.460938 160.539062 284.925781 160.703125 284.371094 160.8125 C 283.820312 160.921875 283.261719 160.976562 282.699219 160.976562 C 282.136719 160.976562 281.582031 160.921875 281.03125 160.8125 C 280.476562 160.703125 279.941406 160.539062 279.421875 160.324219 C 278.902344 160.109375 278.410156 159.84375 277.941406 159.53125 C 277.472656 159.21875 277.042969 158.863281 276.644531 158.464844 C 276.246094 158.066406 275.890625 157.632812 275.578125 157.164062 C 275.265625 156.695312 275.003906 156.203125 274.785156 155.683594 C 274.570312 155.160156 274.410156 154.625 274.300781 154.070312 C 274.191406 153.519531 274.132812 152.960938 274.132812 152.398438 C 274.132812 151.835938 274.191406 151.277344 274.300781 150.722656 C 274.410156 150.171875 274.570312 149.636719 274.785156 149.113281 C 275.003906 148.59375 275.265625 148.101562 275.578125 147.632812 C 275.890625 147.164062 276.246094 146.730469 276.644531 146.332031 C 277.042969 145.933594 277.472656 145.578125 277.941406 145.265625 C 278.410156 144.953125 278.902344 144.6875 279.421875 144.472656 C 279.941406 144.257812 280.476562 144.09375 281.03125 143.984375 C 281.582031 143.875 282.136719 143.820312 282.699219 143.820312 C 283.261719 143.820312 283.820312 143.875 284.371094 143.984375 C 284.925781 144.09375 285.460938 144.257812 285.980469 144.472656 C 286.5 144.6875 286.992188 144.953125 287.460938 145.265625 C 287.929688 145.578125 288.359375 145.933594 288.757812 146.332031 C 289.15625 146.730469 289.511719 147.164062 289.824219 147.632812 C 290.136719 148.101562 290.398438 148.59375 290.617188 149.113281 C 290.832031 149.636719 290.992188 150.171875 291.101562 150.722656 C 291.210938 151.277344 291.265625 151.835938 291.265625 152.398438 Z M 291.265625 152.398438 "/><path style=" stroke:none;fill-rule:nonzero;fill:rgb(97.24884%,79.60968%,18.03894%);fill-opacity:1;" d="M 297.4375 167.277344 C 297.753906 167.5 298.046875 167.757812 298.316406 168.039062 C 298.582031 168.324219 298.820312 168.628906 299.027344 168.960938 C 299.234375 169.292969 299.40625 169.636719 299.546875 170.003906 C 299.683594 170.367188 299.785156 170.742188 299.851562 171.125 C 299.917969 171.511719 299.941406 171.898438 299.933594 172.289062 C 299.921875 172.679688 299.871094 173.0625 299.785156 173.445312 C 299.699219 173.824219 299.574219 174.191406 299.417969 174.546875 C 299.257812 174.902344 299.066406 175.242188 298.839844 175.558594 C 298.613281 175.878906 298.359375 176.171875 298.078125 176.4375 C 297.792969 176.707031 297.488281 176.945312 297.15625 177.152344 C 296.828125 177.359375 296.480469 177.53125 296.117188 177.671875 C 295.753906 177.808594 295.378906 177.910156 294.996094 177.976562 C 294.609375 178.042969 294.222656 178.070312 293.835938 178.058594 C 293.445312 178.046875 293.0625 177.996094 292.679688 177.910156 C 292.300781 177.824219 291.933594 177.699219 291.578125 177.542969 C 291.222656 177.382812 290.886719 177.1875 290.570312 176.964844 C 290.25 176.738281 289.960938 176.484375 289.691406 176.199219 C 289.425781 175.914062 289.1875 175.609375 288.980469 175.277344 C 288.773438 174.949219 288.601562 174.601562 288.460938 174.234375 C 288.324219 173.871094 288.21875 173.496094 288.15625 173.113281 C 288.089844 172.726562 288.0625 172.339844 288.074219 171.949219 C 288.085938 171.5625 288.132812 171.175781 288.222656 170.796875 C 288.308594 170.414062 288.429688 170.046875 288.589844 169.691406 C 288.75 169.335938 288.941406 169 289.167969 168.679688 C 289.394531 168.363281 289.648438 168.070312 289.929688 167.800781 C 290.214844 167.535156 290.519531 167.296875 290.847656 167.089844 C 291.179688 166.882812 291.527344 166.707031 291.890625 166.570312 C 292.253906 166.429688 292.628906 166.328125 293.011719 166.261719 C 293.394531 166.199219 293.78125 166.171875 294.171875 166.179688 C 294.5625 166.191406 294.945312 166.242188 295.324219 166.328125 C 295.703125 166.414062 296.074219 166.539062 296.425781 166.699219 C 296.78125 166.859375 297.121094 167.050781 297.4375 167.277344 Z M 297.4375 167.277344 "/><path style=" stroke:none;fill-rule:nonzero;fill:rgb(97.24884%,79.60968%,18.03894%);fill-opacity:1;" d="M 293.882812 193.132812 C 293.882812 193.5625 293.84375 193.984375 293.757812 194.402344 C 293.675781 194.824219 293.550781 195.230469 293.390625 195.625 C 293.226562 196.019531 293.027344 196.394531 292.789062 196.75 C 292.550781 197.105469 292.28125 197.433594 291.980469 197.738281 C 291.679688 198.039062 291.351562 198.308594 290.996094 198.546875 C 290.640625 198.785156 290.265625 198.984375 289.871094 199.148438 C 289.476562 199.3125 289.070312 199.4375 288.652344 199.519531 C 288.234375 199.601562 287.808594 199.644531 287.382812 199.644531 C 286.957031 199.644531 286.535156 199.601562 286.113281 199.519531 C 285.695312 199.4375 285.289062 199.3125 284.894531 199.148438 C 284.5 198.984375 284.125 198.785156 283.769531 198.546875 C 283.417969 198.308594 283.089844 198.039062 282.785156 197.738281 C 282.484375 197.433594 282.214844 197.105469 281.976562 196.75 C 281.742188 196.394531 281.539062 196.019531 281.375 195.625 C 281.214844 195.230469 281.089844 194.824219 281.007812 194.402344 C 280.921875 193.984375 280.882812 193.5625 280.882812 193.132812 C 280.882812 192.707031 280.921875 192.28125 281.007812 191.863281 C 281.089844 191.445312 281.214844 191.035156 281.375 190.640625 C 281.539062 190.246094 281.742188 189.871094 281.976562 189.515625 C 282.214844 189.160156 282.484375 188.832031 282.785156 188.527344 C 283.089844 188.226562 283.417969 187.957031 283.769531 187.71875 C 284.125 187.480469 284.5 187.28125 284.894531 187.117188 C 285.289062 186.953125 285.695312 186.832031 286.113281 186.746094 C 286.535156 186.664062 286.957031 186.621094 287.382812 186.621094 C 287.808594 186.621094 288.234375 186.664062 288.652344 186.746094 C 289.070312 186.832031 289.476562 186.953125 289.871094 187.117188 C 290.265625 187.28125 290.640625 187.480469 290.996094 187.71875 C 291.351562 187.957031 291.679688 188.226562 291.980469 188.527344 C 292.28125 188.832031 292.550781 189.160156 292.789062 189.515625 C 293.027344 189.871094 293.226562 190.246094 293.390625 190.640625 C 293.550781 191.035156 293.675781 191.445312 293.757812 191.863281 C 293.84375 192.28125 293.882812 192.707031 293.882812 193.132812 Z M 293.882812 193.132812 "/><path style=" stroke:none;fill-rule:nonzero;fill:rgb(97.24884%,79.60968%,18.03894%);fill-opacity:1;" d="M 270.214844 179.886719 C 270.507812 179.933594 270.796875 180.007812 271.074219 180.113281 C 271.355469 180.21875 271.621094 180.347656 271.875 180.503906 C 272.128906 180.660156 272.363281 180.839844 272.582031 181.046875 C 272.800781 181.25 272.996094 181.472656 273.171875 181.714844 C 273.347656 181.957031 273.496094 182.210938 273.621094 182.484375 C 273.742188 182.753906 273.839844 183.035156 273.910156 183.328125 C 273.976562 183.617188 274.015625 183.914062 274.027344 184.210938 C 274.039062 184.507812 274.019531 184.804688 273.972656 185.101562 C 273.925781 185.394531 273.847656 185.683594 273.746094 185.960938 C 273.640625 186.242188 273.511719 186.507812 273.355469 186.761719 C 273.199219 187.015625 273.019531 187.253906 272.816406 187.472656 C 272.613281 187.691406 272.390625 187.886719 272.148438 188.0625 C 271.90625 188.238281 271.648438 188.386719 271.378906 188.511719 C 271.105469 188.636719 270.824219 188.730469 270.535156 188.800781 C 270.246094 188.867188 269.953125 188.910156 269.652344 188.917969 C 269.355469 188.929688 269.058594 188.910156 268.765625 188.863281 C 268.472656 188.816406 268.183594 188.742188 267.90625 188.636719 C 267.625 188.53125 267.359375 188.402344 267.105469 188.246094 C 266.851562 188.089844 266.617188 187.90625 266.398438 187.703125 C 266.179688 187.5 265.984375 187.277344 265.808594 187.035156 C 265.632812 186.792969 265.484375 186.535156 265.359375 186.265625 C 265.238281 185.992188 265.140625 185.710938 265.070312 185.421875 C 265.003906 185.132812 264.964844 184.835938 264.953125 184.539062 C 264.941406 184.238281 264.960938 183.945312 265.007812 183.648438 C 265.054688 183.355469 265.132812 183.066406 265.234375 182.785156 C 265.339844 182.507812 265.46875 182.238281 265.625 181.984375 C 265.78125 181.730469 265.960938 181.496094 266.164062 181.277344 C 266.367188 181.058594 266.589844 180.863281 266.832031 180.6875 C 267.074219 180.511719 267.332031 180.363281 267.601562 180.238281 C 267.875 180.113281 268.152344 180.019531 268.445312 179.949219 C 268.734375 179.878906 269.027344 179.839844 269.328125 179.828125 C 269.625 179.820312 269.921875 179.835938 270.214844 179.886719 Z M 270.214844 179.886719 "/><path style=" stroke:none;fill-rule:nonzero;fill:rgb(97.24884%,79.60968%,18.03894%);fill-opacity:1;" d="M 267.746094 202.417969 C 267.746094 202.835938 267.707031 203.253906 267.625 203.667969 C 267.542969 204.078125 267.421875 204.480469 267.261719 204.867188 C 267.101562 205.257812 266.902344 205.625 266.667969 205.976562 C 266.4375 206.324219 266.171875 206.648438 265.875 206.945312 C 265.578125 207.242188 265.253906 207.507812 264.90625 207.742188 C 264.554688 207.976562 264.1875 208.175781 263.800781 208.335938 C 263.410156 208.496094 263.011719 208.617188 262.597656 208.699219 C 262.1875 208.78125 261.769531 208.824219 261.351562 208.824219 C 260.929688 208.824219 260.515625 208.78125 260.101562 208.699219 C 259.691406 208.617188 259.292969 208.496094 258.902344 208.335938 C 258.515625 208.175781 258.148438 207.976562 257.796875 207.742188 C 257.449219 207.507812 257.125 207.242188 256.828125 206.945312 C 256.53125 206.648438 256.265625 206.324219 256.03125 205.976562 C 255.800781 205.625 255.601562 205.257812 255.441406 204.867188 C 255.28125 204.480469 255.160156 204.078125 255.078125 203.667969 C 254.996094 203.253906 254.953125 202.835938 254.953125 202.417969 C 254.953125 201.996094 254.996094 201.578125 255.078125 201.167969 C 255.160156 200.753906 255.28125 200.355469 255.441406 199.964844 C 255.601562 199.578125 255.800781 199.207031 256.03125 198.855469 C 256.265625 198.507812 256.53125 198.183594 256.828125 197.886719 C 257.125 197.589844 257.449219 197.324219 257.796875 197.089844 C 258.148438 196.855469 258.515625 196.660156 258.902344 196.496094 C 259.292969 196.335938 259.691406 196.214844 260.101562 196.132812 C 260.515625 196.050781 260.929688 196.011719 261.351562 196.011719 C 261.769531 196.011719 262.1875 196.050781 262.597656 196.132812 C 263.011719 196.214844 263.410156 196.335938 263.800781 196.496094 C 264.1875 196.660156 264.554688 196.855469 264.90625 197.089844 C 265.253906 197.324219 265.578125 197.589844 265.875 197.886719 C 266.171875 198.183594 266.4375 198.507812 266.667969 198.855469 C 266.902344 199.207031 267.101562 199.578125 267.261719 199.964844 C 267.421875 200.355469 267.542969 200.753906 267.625 201.167969 C 267.707031 201.578125 267.746094 201.996094 267.746094 202.417969 Z M 267.746094 202.417969 "/><path style=" stroke:none;fill-rule:nonzero;fill:rgb(97.24884%,79.60968%,18.03894%);fill-opacity:1;" d="M 293.394531 130.800781 C 293.660156 130.863281 293.917969 130.953125 294.164062 131.066406 C 294.410156 131.179688 294.644531 131.316406 294.863281 131.476562 C 295.085938 131.632812 295.289062 131.8125 295.472656 132.011719 C 295.65625 132.210938 295.820312 132.429688 295.964844 132.660156 C 296.105469 132.890625 296.226562 133.136719 296.320312 133.390625 C 296.414062 133.644531 296.484375 133.90625 296.527344 134.175781 C 296.570312 134.445312 296.585938 134.714844 296.578125 134.988281 C 296.566406 135.257812 296.53125 135.527344 296.46875 135.792969 C 296.40625 136.058594 296.320312 136.3125 296.207031 136.5625 C 296.09375 136.808594 295.957031 137.042969 295.796875 137.261719 C 295.636719 137.484375 295.457031 137.6875 295.257812 137.871094 C 295.0625 138.058594 294.84375 138.222656 294.613281 138.363281 C 294.382812 138.507812 294.140625 138.625 293.886719 138.722656 C 293.628906 138.816406 293.367188 138.886719 293.101562 138.929688 C 292.832031 138.972656 292.5625 138.988281 292.289062 138.980469 C 292.019531 138.96875 291.75 138.933594 291.484375 138.871094 C 291.222656 138.808594 290.964844 138.71875 290.71875 138.605469 C 290.472656 138.492188 290.238281 138.355469 290.015625 138.195312 C 289.796875 138.039062 289.59375 137.859375 289.410156 137.660156 C 289.222656 137.460938 289.058594 137.242188 288.917969 137.011719 C 288.773438 136.78125 288.65625 136.539062 288.5625 136.28125 C 288.464844 136.027344 288.398438 135.765625 288.355469 135.496094 C 288.3125 135.226562 288.292969 134.957031 288.304688 134.683594 C 288.3125 134.414062 288.351562 134.144531 288.414062 133.878906 C 288.476562 133.613281 288.5625 133.359375 288.675781 133.109375 C 288.789062 132.863281 288.925781 132.628906 289.085938 132.410156 C 289.246094 132.1875 289.421875 131.984375 289.621094 131.800781 C 289.820312 131.613281 290.035156 131.449219 290.269531 131.308594 C 290.5 131.164062 290.742188 131.046875 290.996094 130.949219 C 291.253906 130.855469 291.515625 130.785156 291.78125 130.742188 C 292.050781 130.699219 292.320312 130.683594 292.59375 130.691406 C 292.863281 130.703125 293.132812 130.738281 293.394531 130.800781 Z M 293.394531 130.800781 "/><path style=" stroke:none;fill-rule:nonzero;fill:rgb(97.24884%,79.60968%,18.03894%);fill-opacity:1;" d="M 249.8125 189.429688 C 249.8125 189.726562 249.785156 190.019531 249.726562 190.308594 C 249.667969 190.597656 249.582031 190.878906 249.46875 191.152344 C 249.355469 191.425781 249.21875 191.6875 249.054688 191.929688 C 248.890625 192.175781 248.703125 192.40625 248.496094 192.613281 C 248.289062 192.824219 248.058594 193.007812 247.816406 193.171875 C 247.570312 193.339844 247.308594 193.476562 247.039062 193.589844 C 246.765625 193.703125 246.484375 193.789062 246.195312 193.847656 C 245.90625 193.902344 245.613281 193.933594 245.316406 193.933594 C 245.023438 193.933594 244.730469 193.902344 244.441406 193.847656 C 244.152344 193.789062 243.871094 193.703125 243.597656 193.589844 C 243.324219 193.476562 243.066406 193.339844 242.820312 193.171875 C 242.574219 193.007812 242.347656 192.824219 242.140625 192.613281 C 241.929688 192.40625 241.742188 192.175781 241.578125 191.929688 C 241.414062 191.6875 241.277344 191.425781 241.164062 191.152344 C 241.050781 190.878906 240.964844 190.597656 240.910156 190.308594 C 240.851562 190.019531 240.820312 189.726562 240.820312 189.429688 C 240.820312 189.132812 240.851562 188.84375 240.910156 188.550781 C 240.964844 188.261719 241.050781 187.980469 241.164062 187.707031 C 241.277344 187.433594 241.414062 187.175781 241.578125 186.929688 C 241.742188 186.683594 241.929688 186.457031 242.140625 186.246094 C 242.347656 186.039062 242.574219 185.851562 242.820312 185.6875 C 243.066406 185.523438 243.324219 185.382812 243.597656 185.269531 C 243.871094 185.15625 244.152344 185.070312 244.441406 185.015625 C 244.730469 184.957031 245.023438 184.929688 245.316406 184.929688 C 245.613281 184.929688 245.90625 184.957031 246.195312 185.015625 C 246.484375 185.070312 246.765625 185.15625 247.039062 185.269531 C 247.308594 185.382812 247.570312 185.523438 247.816406 185.6875 C 248.058594 185.851562 248.289062 186.039062 248.496094 186.246094 C 248.703125 186.457031 248.890625 186.683594 249.054688 186.929688 C 249.21875 187.175781 249.355469 187.433594 249.46875 187.707031 C 249.582031 187.980469 249.667969 188.261719 249.726562 188.550781 C 249.785156 188.84375 249.8125 189.132812 249.8125 189.429688 Z M 249.8125 189.429688 "/><path style=" stroke:none;fill-rule:nonzero;fill:rgb(97.24884%,79.60968%,18.03894%);fill-opacity:1;" d="M 300.722656 149.664062 C 300.722656 149.898438 300.679688 150.121094 300.589844 150.335938 C 300.5 150.554688 300.371094 150.746094 300.207031 150.910156 C 300.042969 151.074219 299.851562 151.203125 299.636719 151.292969 C 299.421875 151.382812 299.195312 151.425781 298.964844 151.425781 C 298.730469 151.425781 298.503906 151.382812 298.289062 151.292969 C 298.074219 151.203125 297.882812 151.074219 297.71875 150.910156 C 297.554688 150.746094 297.425781 150.554688 297.335938 150.335938 C 297.246094 150.121094 297.203125 149.898438 297.203125 149.664062 C 297.203125 149.429688 297.246094 149.203125 297.335938 148.988281 C 297.425781 148.773438 297.554688 148.582031 297.71875 148.417969 C 297.882812 148.25 298.074219 148.125 298.289062 148.035156 C 298.503906 147.945312 298.730469 147.902344 298.964844 147.902344 C 299.195312 147.902344 299.421875 147.945312 299.636719 148.035156 C 299.851562 148.125 300.042969 148.25 300.207031 148.417969 C 300.371094 148.582031 300.5 148.773438 300.589844 148.988281 C 300.679688 149.203125 300.722656 149.429688 300.722656 149.664062 Z M 300.722656 149.664062 "/><path style=" stroke:none;fill-rule:nonzero;fill:rgb(97.24884%,79.60968%,18.03894%);fill-opacity:1;" d="M 281.859375 172.699219 C 281.859375 172.996094 281.800781 173.28125 281.6875 173.558594 C 281.574219 173.832031 281.410156 174.074219 281.203125 174.285156 C 280.992188 174.496094 280.75 174.65625 280.476562 174.769531 C 280.203125 174.886719 279.914062 174.941406 279.621094 174.941406 C 279.324219 174.941406 279.035156 174.886719 278.761719 174.769531 C 278.488281 174.65625 278.246094 174.496094 278.035156 174.285156 C 277.828125 174.074219 277.664062 173.832031 277.550781 173.558594 C 277.4375 173.28125 277.378906 172.996094 277.378906 172.699219 C 277.378906 172.402344 277.4375 172.117188 277.550781 171.839844 C 277.664062 171.566406 277.828125 171.324219 278.035156 171.113281 C 278.246094 170.902344 278.488281 170.742188 278.761719 170.628906 C 279.035156 170.515625 279.324219 170.457031 279.621094 170.457031 C 279.914062 170.457031 280.203125 170.515625 280.476562 170.628906 C 280.75 170.742188 280.992188 170.902344 281.203125 171.113281 C 281.410156 171.324219 281.574219 171.566406 281.6875 171.839844 C 281.800781 172.117188 281.859375 172.402344 281.859375 172.699219 Z M 281.859375 172.699219 "/><g style="fill:rgb(100%,100%,100%);fill-opacity:1;"><g transform="translate(56.148285, 276.135303)"><path style="stroke:none;" d="M 29.703125 -33.34375 L 29.703125 -41.753906 L 4.773438 -41.753906 L 4.773438 0 L 13.777344 0 L 13.777344 -15.984375 L 28.152344 -15.984375 L 28.152344 -24.15625 L 13.777344 -24.15625 L 13.777344 -33.34375 Z M 29.703125 -33.34375 "/></g></g><g style="fill:rgb(100%,100%,100%);fill-opacity:1;"><g transform="translate(86.860907, 276.135303)"><path style="stroke:none;" d="M 4.773438 0 L 13.777344 0 L 13.777344 -41.753906 L 4.773438 -41.753906 Z M 4.773438 0 "/></g></g><g style="fill:rgb(100%,100%,100%);fill-opacity:1;"><g transform="translate(104.274533, 276.135303)"><path style="stroke:none;" d="M 15.152344 -8.351562 L 32.386719 -40.082031 L 32.386719 -41.753906 L 2.503906 -41.753906 L 2.503906 -33.34375 L 18.96875 -33.34375 L 1.550781 -1.3125 L 1.550781 0 L 33.105469 0 L 33.105469 -8.351562 Z M 15.152344 -8.351562 "/></g></g><g style="fill:rgb(100%,100%,100%);fill-opacity:1;"><g transform="translate(137.849722, 276.135303)"><path style="stroke:none;" d="M 15.152344 -8.351562 L 32.386719 -40.082031 L 32.386719 -41.753906 L 2.503906 -41.753906 L 2.503906 -33.34375 L 18.96875 -33.34375 L 1.550781 -1.3125 L 1.550781 0 L 33.105469 0 L 33.105469 -8.351562 Z M 15.152344 -8.351562 "/></g></g><g style="fill:rgb(97.24884%,79.60968%,18.03894%);fill-opacity:1;"><g transform="translate(171.413902, 276.135303)"><path style="stroke:none;" d="M 29.882812 -22.011719 C 32.804688 -24.039062 34.59375 -27.378906 34.59375 -30.957031 C 34.59375 -37.101562 29.226562 -41.695312 22.011719 -41.695312 L 4.773438 -41.695312 L 4.773438 0.0585938 L 22.488281 0.0585938 C 29.765625 0.0585938 35.667969 -5.308594 35.667969 -11.988281 C 35.667969 -16.460938 33.523438 -20.042969 29.882812 -22.011719 Z M 25.828125 -29.585938 C 25.828125 -26.960938 23.976562 -25.113281 21.175781 -25.113281 L 13.601562 -25.113281 L 13.601562 -34 L 21.175781 -34 C 23.976562 -34 25.828125 -32.210938 25.828125 -29.585938 Z M 21.652344 -8.230469 L 13.601562 -8.230469 L 13.601562 -17.597656 L 21.652344 -17.597656 C 24.632812 -17.597656 26.601562 -15.628906 26.601562 -12.945312 C 26.601562 -10.199219 24.632812 -8.230469 21.652344 -8.230469 Z M 21.652344 -8.230469 "/></g></g><g style="fill:rgb(97.24884%,79.60968%,18.03894%);fill-opacity:1;"><g transform="translate(208.507658, 276.135303)"><path style="stroke:none;" d="M 21.59375 0.953125 C 31.433594 0.953125 38.832031 -5.90625 38.832031 -15.6875 L 38.832031 -41.753906 L 29.765625 -41.753906 L 29.765625 -16.105469 C 29.765625 -10.914062 26.363281 -7.574219 21.59375 -7.574219 C 16.761719 -7.574219 13.359375 -10.914062 13.359375 -16.105469 L 13.359375 -41.753906 L 4.292969 -41.753906 L 4.292969 -15.6875 C 4.292969 -5.90625 11.691406 0.953125 21.59375 0.953125 Z M 21.59375 0.953125 "/></g></g><g style="fill:rgb(97.24884%,79.60968%,18.03894%);fill-opacity:1;"><g transform="translate(250.491634, 276.135303)"><path style="stroke:none;" d="M 15.152344 -8.351562 L 32.386719 -40.082031 L 32.386719 -41.753906 L 2.503906 -41.753906 L 2.503906 -33.34375 L 18.96875 -33.34375 L 1.550781 -1.3125 L 1.550781 0 L 33.105469 0 L 33.105469 -8.351562 Z M 15.152344 -8.351562 "/></g></g><g style="fill:rgb(97.24884%,79.60968%,18.03894%);fill-opacity:1;"><g transform="translate(284.066823, 276.135303)"><path style="stroke:none;" d="M 15.152344 -8.351562 L 32.386719 -40.082031 L 32.386719 -41.753906 L 2.503906 -41.753906 L 2.503906 -33.34375 L 18.96875 -33.34375 L 1.550781 -1.3125 L 1.550781 0 L 33.105469 0 L 33.105469 -8.351562 Z M 15.152344 -8.351562 "/></g></g><g style="fill:rgb(100%,100%,100%);fill-opacity:1;"><g transform="translate(58.508638, 298.668496)"><path style="stroke:none;" d="M 11.9375 -9.183594 L 9.707031 -1.875 L 6.9375 -9 L 6.480469 -9 L 3.789062 -1.875 L 1.507812 -9.183594 L 0.289062 -9.183594 L 3.238281 0 L 4.25 0 L 6.714844 -6.519531 L 9.246094 0 L 10.257812 0 L 13.15625 -9.183594 Z M 11.9375 -9.183594 "/></g></g><g style="fill:rgb(100%,100%,100%);fill-opacity:1;"><g transform="translate(73.55086, 298.668496)"><path style="stroke:none;" d="M 7.148438 -9.183594 L 7.148438 -5.273438 L 2.402344 -5.273438 L 2.402344 -9.183594 L 1.246094 -9.183594 L 1.246094 0 L 2.402344 0 L 2.402344 -4.171875 L 7.148438 -4.171875 L 7.148438 0 L 8.304688 0 L 8.304688 -9.183594 Z M 7.148438 -9.183594 "/></g></g><g style="fill:rgb(100%,100%,100%);fill-opacity:1;"><g transform="translate(84.685302, 298.668496)"><path style="stroke:none;" d="M 2.402344 -1.101562 L 2.402344 -4.183594 L 6.101562 -4.183594 L 6.101562 -5.246094 L 2.402344 -5.246094 L 2.402344 -8.082031 L 6.441406 -8.082031 L 6.441406 -9.183594 L 1.246094 -9.183594 L 1.246094 0 L 6.585938 0 L 6.585938 -1.101562 Z M 2.402344 -1.101562 "/></g></g><g style="fill:rgb(100%,100%,100%);fill-opacity:1;"><g transform="translate(93.511803, 298.668496)"><path style="stroke:none;" d="M 7.4375 -9.183594 L 7.4375 -2.097656 L 2.296875 -9.183594 L 1.246094 -9.183594 L 1.246094 0 L 2.375 0 L 2.375 -7.164062 L 7.59375 0 L 8.566406 0 L 8.566406 -9.183594 Z M 7.4375 -9.183594 "/></g></g><g style="fill:rgb(100%,100%,100%);fill-opacity:1;"><g transform="translate(104.908522, 298.668496)"><path style="stroke:none;" d=""/></g></g><g style="fill:rgb(100%,100%,100%);fill-opacity:1;"><g transform="translate(109.919048, 298.668496)"><path style="stroke:none;" d="M 1.246094 0 L 2.402344 0 L 2.402344 -9.183594 L 1.246094 -9.183594 Z M 1.246094 0 "/></g></g><g style="fill:rgb(100%,100%,100%);fill-opacity:1;"><g transform="translate(115.152505, 298.668496)"><path style="stroke:none;" d="M 7.003906 -9.183594 L 0.277344 -9.183594 L 0.277344 -8.09375 L 3.070312 -8.09375 L 3.070312 0 L 4.210938 0 L 4.210938 -8.09375 L 7.003906 -8.09375 Z M 7.003906 -9.183594 "/></g></g><g style="fill:rgb(100%,100%,100%);fill-opacity:1;"><g transform="translate(124.018351, 298.668496)"><path style="stroke:none;" d=""/></g></g><g style="fill:rgb(100%,100%,100%);fill-opacity:1;"><g transform="translate(129.028877, 298.668496)"><path style="stroke:none;" d="M 5.324219 0.144531 C 7.488281 0.144531 9.195312 -1.15625 9.71875 -3.226562 L 8.550781 -3.226562 C 8.066406 -1.824219 6.875 -0.984375 5.324219 -0.984375 C 3.28125 -0.984375 1.796875 -2.464844 1.796875 -4.578125 C 1.796875 -6.691406 3.28125 -8.199219 5.324219 -8.199219 C 6.835938 -8.199219 8.015625 -7.398438 8.5 -6.074219 L 9.679688 -6.074219 C 9.15625 -8.054688 7.449219 -9.3125 5.324219 -9.3125 C 2.597656 -9.3125 0.617188 -7.332031 0.617188 -4.578125 C 0.617188 -1.835938 2.597656 0.144531 5.324219 0.144531 Z M 5.324219 0.144531 "/></g></g><g style="fill:rgb(100%,100%,100%);fill-opacity:1;"><g transform="translate(140.779653, 298.668496)"><path style="stroke:none;" d="M 5.429688 0.15625 C 8.210938 0.15625 10.230469 -1.875 10.230469 -4.578125 C 10.230469 -7.292969 8.210938 -9.328125 5.429688 -9.328125 C 2.648438 -9.328125 0.617188 -7.292969 0.617188 -4.578125 C 0.617188 -1.875 2.648438 0.15625 5.429688 0.15625 Z M 5.429688 -0.96875 C 3.34375 -0.96875 1.796875 -2.53125 1.796875 -4.578125 C 1.796875 -6.636719 3.34375 -8.199219 5.429688 -8.199219 C 7.515625 -8.199219 9.0625 -6.652344 9.0625 -4.578125 C 9.0625 -2.519531 7.515625 -0.96875 5.429688 -0.96875 Z M 5.429688 -0.96875 "/></g></g><g style="fill:rgb(100%,100%,100%);fill-opacity:1;"><g transform="translate(153.225428, 298.668496)"><path style="stroke:none;" d="M 4.75 0.15625 C 6.808594 0.15625 8.34375 -1.324219 8.34375 -3.410156 L 8.34375 -9.183594 L 7.1875 -9.183594 L 7.1875 -3.503906 C 7.1875 -1.980469 6.164062 -0.96875 4.75 -0.96875 C 3.320312 -0.96875 2.308594 -1.980469 2.308594 -3.503906 L 2.308594 -9.183594 L 1.140625 -9.183594 L 1.140625 -3.410156 C 1.140625 -1.324219 2.675781 0.15625 4.75 0.15625 Z M 4.75 0.15625 "/></g></g><g style="fill:rgb(100%,100%,100%);fill-opacity:1;"><g transform="translate(164.294302, 298.668496)"><path style="stroke:none;" d="M 7.4375 -9.183594 L 7.4375 -2.097656 L 2.296875 -9.183594 L 1.246094 -9.183594 L 1.246094 0 L 2.375 0 L 2.375 -7.164062 L 7.59375 0 L 8.566406 0 L 8.566406 -9.183594 Z M 7.4375 -9.183594 "/></g></g><g style="fill:rgb(100%,100%,100%);fill-opacity:1;"><g transform="translate(175.691014, 298.668496)"><path style="stroke:none;" d="M 7.003906 -9.183594 L 0.277344 -9.183594 L 0.277344 -8.09375 L 3.070312 -8.09375 L 3.070312 0 L 4.210938 0 L 4.210938 -8.09375 L 7.003906 -8.09375 Z M 7.003906 -9.183594 "/></g></g><g style="fill:rgb(100%,100%,100%);fill-opacity:1;"><g transform="translate(184.556855, 298.668496)"><path style="stroke:none;" d="M 3.988281 0.117188 C 5.8125 0.117188 7.226562 -0.867188 7.226562 -2.597656 C 7.226562 -4.511719 5.601562 -4.894531 4.160156 -5.246094 C 2.976562 -5.523438 1.914062 -5.785156 1.914062 -6.78125 C 1.914062 -7.660156 2.753906 -8.183594 3.871094 -8.183594 C 4.984375 -8.183594 5.824219 -7.59375 5.824219 -6.570312 L 6.964844 -6.570312 C 6.964844 -8.238281 5.796875 -9.289062 3.894531 -9.289062 C 1.992188 -9.289062 0.773438 -8.328125 0.773438 -6.742188 C 0.773438 -4.90625 2.335938 -4.527344 3.75 -4.199219 C 4.945312 -3.910156 6.035156 -3.660156 6.035156 -2.585938 C 6.035156 -1.613281 5.128906 -1.011719 3.972656 -1.011719 C 2.703125 -1.011719 1.769531 -1.679688 1.769531 -2.820312 L 0.589844 -2.820312 C 0.589844 -1.011719 1.96875 0.117188 3.988281 0.117188 Z M 3.988281 0.117188 "/></g></g><g style="fill:rgb(100%,100%,100%);fill-opacity:1;"><g transform="translate(193.960338, 298.668496)"><path style="stroke:none;" d="M 0.957031 1.746094 C 1.769531 1.523438 2.242188 0.957031 2.242188 -0.09375 L 2.242188 -1.378906 L 0.890625 -1.378906 L 0.890625 0 L 1.640625 0 C 1.640625 0.578125 1.457031 0.957031 0.957031 1.128906 Z M 0.957031 1.746094 "/></g></g><g style="fill:rgb(100%,100%,100%);fill-opacity:1;"><g transform="translate(198.69548, 298.668496)"><path style="stroke:none;" d=""/></g></g><g style="fill:rgb(100%,100%,100%);fill-opacity:1;"><g transform="translate(203.706, 298.668496)"><path style="stroke:none;" d="M 8.289062 -9.183594 L 7.03125 -9.183594 L 4.316406 -4.734375 L 1.613281 -9.183594 L 0.355469 -9.183594 L 3.710938 -3.660156 L 3.710938 0 L 4.90625 0 L 4.90625 -3.660156 Z M 8.289062 -9.183594 "/></g></g><g style="fill:rgb(100%,100%,100%);fill-opacity:1;"><g transform="translate(213.909392, 298.668496)"><path style="stroke:none;" d="M 5.429688 0.15625 C 8.210938 0.15625 10.230469 -1.875 10.230469 -4.578125 C 10.230469 -7.292969 8.210938 -9.328125 5.429688 -9.328125 C 2.648438 -9.328125 0.617188 -7.292969 0.617188 -4.578125 C 0.617188 -1.875 2.648438 0.15625 5.429688 0.15625 Z M 5.429688 -0.96875 C 3.34375 -0.96875 1.796875 -2.53125 1.796875 -4.578125 C 1.796875 -6.636719 3.34375 -8.199219 5.429688 -8.199219 C 7.515625 -8.199219 9.0625 -6.652344 9.0625 -4.578125 C 9.0625 -2.519531 7.515625 -0.96875 5.429688 -0.96875 Z M 5.429688 -0.96875 "/></g></g><g style="fill:rgb(100%,100%,100%);fill-opacity:1;"><g transform="translate(226.355161, 298.668496)"><path style="stroke:none;" d="M 4.75 0.15625 C 6.808594 0.15625 8.34375 -1.324219 8.34375 -3.410156 L 8.34375 -9.183594 L 7.1875 -9.183594 L 7.1875 -3.503906 C 7.1875 -1.980469 6.164062 -0.96875 4.75 -0.96875 C 3.320312 -0.96875 2.308594 -1.980469 2.308594 -3.503906 L 2.308594 -9.183594 L 1.140625 -9.183594 L 1.140625 -3.410156 C 1.140625 -1.324219 2.675781 0.15625 4.75 0.15625 Z M 4.75 0.15625 "/></g></g><g style="fill:rgb(100%,100%,100%);fill-opacity:1;"><g transform="translate(237.424035, 298.668496)"><path style="stroke:none;" d=""/></g></g><g style="fill:rgb(100%,100%,100%);fill-opacity:1;"><g transform="translate(242.434555, 298.668496)"><path style="stroke:none;" d="M 6.402344 -8.082031 L 6.402344 -9.183594 L 1.246094 -9.183594 L 1.246094 0 L 2.402344 0 L 2.402344 -3.988281 L 6.058594 -3.988281 L 6.058594 -5.050781 L 2.402344 -5.050781 L 2.402344 -8.082031 Z M 6.402344 -8.082031 "/></g></g><g style="fill:rgb(100%,100%,100%);fill-opacity:1;"><g transform="translate(250.867649, 298.668496)"><path style="stroke:none;" d="M 1.246094 0 L 2.402344 0 L 2.402344 -9.183594 L 1.246094 -9.183594 Z M 1.246094 0 "/></g></g><g style="fill:rgb(100%,100%,100%);fill-opacity:1;"><g transform="translate(256.1011, 298.668496)"><path style="stroke:none;" d="M 2.164062 -1.074219 L 6.886719 -8.960938 L 6.886719 -9.183594 L 0.539062 -9.183594 L 0.539062 -8.09375 L 5.078125 -8.09375 L 0.328125 -0.195312 L 0.328125 0 L 7.03125 0 L 7.03125 -1.074219 Z M 2.164062 -1.074219 "/></g></g><g style="fill:rgb(100%,100%,100%);fill-opacity:1;"><g transform="translate(265.058734, 298.668496)"><path style="stroke:none;" d="M 2.164062 -1.074219 L 6.886719 -8.960938 L 6.886719 -9.183594 L 0.539062 -9.183594 L 0.539062 -8.09375 L 5.078125 -8.09375 L 0.328125 -0.195312 L 0.328125 0 L 7.03125 0 L 7.03125 -1.074219 Z M 2.164062 -1.074219 "/></g></g><g style="fill:rgb(100%,100%,100%);fill-opacity:1;"><g transform="translate(274.016367, 298.668496)"><path style="stroke:none;" d=""/></g></g><g style="fill:rgb(100%,100%,100%);fill-opacity:1;"><g transform="translate(279.026888, 298.668496)"><path style="stroke:none;" d="M 6.335938 -4.761719 C 7.019531 -5.167969 7.464844 -6.007812 7.464844 -6.835938 C 7.464844 -8.171875 6.375 -9.183594 4.878906 -9.183594 L 1.246094 -9.183594 L 1.246094 0 L 4.917969 0 C 6.507812 0 7.699219 -1.101562 7.699219 -2.519531 C 7.699219 -3.527344 7.1875 -4.394531 6.335938 -4.761719 Z M 6.285156 -6.675781 C 6.285156 -5.914062 5.679688 -5.300781 4.851562 -5.300781 L 2.386719 -5.300781 L 2.386719 -8.054688 L 4.851562 -8.054688 C 5.652344 -8.054688 6.285156 -7.449219 6.285156 -6.675781 Z M 4.90625 -1.128906 L 2.386719 -1.128906 L 2.386719 -4.171875 L 4.917969 -4.171875 C 5.824219 -4.171875 6.519531 -3.515625 6.519531 -2.648438 C 6.519531 -1.769531 5.824219 -1.128906 4.90625 -1.128906 Z M 4.90625 -1.128906 "/></g></g><g style="fill:rgb(100%,100%,100%);fill-opacity:1;"><g transform="translate(289.059808, 298.668496)"><path style="stroke:none;" d="M 4.75 0.15625 C 6.808594 0.15625 8.34375 -1.324219 8.34375 -3.410156 L 8.34375 -9.183594 L 7.1875 -9.183594 L 7.1875 -3.503906 C 7.1875 -1.980469 6.164062 -0.96875 4.75 -0.96875 C 3.320312 -0.96875 2.308594 -1.980469 2.308594 -3.503906 L 2.308594 -9.183594 L 1.140625 -9.183594 L 1.140625 -3.410156 C 1.140625 -1.324219 2.675781 0.15625 4.75 0.15625 Z M 4.75 0.15625 "/></g></g><g style="fill:rgb(100%,100%,100%);fill-opacity:1;"><g transform="translate(300.128693, 298.668496)"><path style="stroke:none;" d="M 2.164062 -1.074219 L 6.886719 -8.960938 L 6.886719 -9.183594 L 0.539062 -9.183594 L 0.539062 -8.09375 L 5.078125 -8.09375 L 0.328125 -0.195312 L 0.328125 0 L 7.03125 0 L 7.03125 -1.074219 Z M 2.164062 -1.074219 "/></g></g><g style="fill:rgb(100%,100%,100%);fill-opacity:1;"><g transform="translate(309.086327, 298.668496)"><path style="stroke:none;" d="M 2.164062 -1.074219 L 6.886719 -8.960938 L 6.886719 -9.183594 L 0.539062 -9.183594 L 0.539062 -8.09375 L 5.078125 -8.09375 L 0.328125 -0.195312 L 0.328125 0 L 7.03125 0 L 7.03125 -1.074219 Z M 2.164062 -1.074219 "/></g></g></g></svg>