<svg id="Layer_1" data-name="Layer 1" xmlns="http://www.w3.org/2000/svg" viewBox="0 0 149.39 149.39"><defs><style>.cls-1{fill:#563d7c;}.cls-2{fill:#fff;}</style></defs><path class="cls-1" d="M0,130.13a19.26,19.26,0,0,0,19.26,19.26H130.13a19.26,19.26,0,0,0,19.26-19.26V19.26A19.26,19.26,0,0,0,130.13,0H19.26A19.26,19.26,0,0,0,0,19.26V130.13Z"/><path class="cls-2" d="M62,66.08V44.93H80.57a28.48,28.48,0,0,1,5.13.44A12.62,12.62,0,0,1,90.07,47a8.43,8.43,0,0,1,3,3.17,10.5,10.5,0,0,1,1.15,5.19c0,3.8-1.15,6.55-3.43,8.24a14.28,14.28,0,0,1-8.74,2.53ZM42.06,29.47v90.45H85.89a46,46,0,0,0,11.85-1.52A31.65,31.65,0,0,0,108,113.72a23.2,23.2,0,0,0,7.16-8.18,24.9,24.9,0,0,0,2.66-11.84,25.06,25.06,0,0,0-4.12-14.51q-4.11-6-12.48-8.42a22.5,22.5,0,0,0,9.19-7.47,19.86,19.86,0,0,0,3.1-11.41,24.31,24.31,0,0,0-2.09-10.64,17.37,17.37,0,0,0-5.89-6.9,25.41,25.41,0,0,0-9.12-3.74,56.39,56.39,0,0,0-11.78-1.14Zm19.89,75V79.64H83.61q6.47,0,10.39,3t3.93,10a12.49,12.49,0,0,1-1.2,5.83A9.6,9.6,0,0,1,93.49,102a13.79,13.79,0,0,1-4.68,1.9,26.59,26.59,0,0,1-5.58.57Z"/></svg>